<svg width="20" height="20" viewBox="0 0 20 20" fill="none" xmlns="http://www.w3.org/2000/svg">
<g id="Interface / Book_Open">
<path id="Vector" d="M10 8.16683V16.6668M10 8.16683C10 6.7667 10 6.06692 10.2725 5.53215C10.5122 5.06174 10.8943 4.67916 11.3647 4.43948C11.8995 4.16699 12.5997 4.16699 13.9998 4.16699H16.1665C16.6332 4.16699 16.8667 4.16699 17.045 4.25782C17.2018 4.33771 17.329 4.46511 17.4089 4.62191C17.4997 4.80017 17.5 5.0337 17.5 5.50041V12.8337C17.5 13.3005 17.4997 13.5335 17.4089 13.7117C17.329 13.8685 17.2021 13.9964 17.0453 14.0763C16.8672 14.167 16.6342 14.167 16.1684 14.167H13.8078C13.0251 14.167 12.6331 14.167 12.2778 14.2749C11.9634 14.3704 11.6714 14.5267 11.4175 14.7354C11.1307 14.9712 10.9134 15.2968 10.4792 15.948L10 16.6668M10 8.16683C10 6.7667 9.99986 6.06692 9.72738 5.53215C9.48769 5.06174 9.10522 4.67916 8.63481 4.43948C8.10003 4.16699 7.39981 4.16699 5.99967 4.16699H3.83301C3.3663 4.16699 3.13318 4.16699 2.95492 4.25782C2.79811 4.33771 2.67072 4.46511 2.59083 4.62191C2.5 4.80017 2.5 5.0337 2.5 5.50041V12.8337C2.5 13.3005 2.5 13.5335 2.59083 13.7117C2.67072 13.8685 2.79811 13.9964 2.95492 14.0763C3.133 14.167 3.36584 14.167 3.83164 14.167H6.19227C6.97495 14.167 7.36618 14.167 7.7214 14.2749C8.03588 14.3704 8.32927 14.5267 8.58317 14.7354C8.86881 14.9702 9.08477 15.2941 9.5154 15.9401L10 16.6668" stroke="#8B6DE8" stroke-width="1.66667" stroke-linecap="round" stroke-linejoin="round"/>
</g>
</svg>
