<svg width="12" height="16" viewBox="0 0 12 16" fill="none" xmlns="http://www.w3.org/2000/svg">
<path d="M0.999908 4.00008V11.9044C0.999908 13.0386 0.999908 13.6056 1.17001 13.9526C1.48528 14.5959 2.17622 14.9656 2.8863 14.8711C3.26941 14.8201 3.74127 14.5055 4.68499 13.8764L4.68725 13.8749C5.06131 13.6255 5.24837 13.5008 5.44404 13.4316C5.80342 13.3046 6.19554 13.3046 6.55492 13.4316C6.75098 13.5009 6.93877 13.6261 7.31434 13.8765C8.25806 14.5057 8.73045 14.82 9.11356 14.871C9.82364 14.9654 10.5146 14.5959 10.8298 13.9526C10.9999 13.6056 10.9999 13.0384 10.9999 11.9044V3.99734C10.9999 3.06575 10.9999 2.59925 10.8184 2.24308C10.6586 1.92948 10.403 1.6747 10.0894 1.51491C9.73288 1.33325 9.26683 1.33325 8.3334 1.33325H3.66674C2.73332 1.33325 2.26626 1.33325 1.90974 1.51491C1.59614 1.6747 1.34135 1.92948 1.18156 2.24308C0.999908 2.5996 0.999908 3.06666 0.999908 4.00008Z" stroke="#D1C5F6" stroke-width="1.66667" stroke-linecap="round" stroke-linejoin="round"/>
</svg>
