<svg width="24" height="24" viewBox="0 0 24 24" fill="none" xmlns="http://www.w3.org/2000/svg">
<g clip-path="url(#clip0_2936_4276)">
<path d="M12.0002 15.1756C11.8876 15.1757 11.7761 15.1536 11.6721 15.1105C11.5681 15.0675 11.4735 15.0044 11.3939 14.9248C11.3143 14.8451 11.2512 14.7506 11.2081 14.6466C11.1651 14.5426 11.143 14.4311 11.1431 14.3185V1.49972C11.1431 1.27239 11.2334 1.05437 11.3941 0.893629C11.5549 0.732884 11.7729 0.642578 12.0002 0.642578C12.2275 0.642578 12.4456 0.732884 12.6063 0.893629C12.767 1.05437 12.8574 1.27239 12.8574 1.49972V14.3185C12.8574 14.5458 12.767 14.7638 12.6063 14.9246C12.4456 15.0853 12.2275 15.1756 12.0002 15.1756Z" fill="#8B6DE8"/>
<path d="M12.0001 15.5608C11.7121 15.5613 11.4267 15.5048 11.1606 15.3947C10.8944 15.2845 10.6526 15.1229 10.449 14.919L5.81979 10.2897C5.65911 10.1291 5.56885 9.91115 5.56885 9.68392C5.56885 9.45669 5.65911 9.23877 5.81979 9.07809C5.98047 8.91742 6.19839 8.82715 6.42562 8.82715C6.65285 8.82715 6.87077 8.91742 7.03145 9.07809L11.6607 13.7073C11.7053 13.7519 11.7582 13.7873 11.8164 13.8114C11.8747 13.8355 11.9371 13.848 12.0001 13.848C12.0632 13.848 12.1256 13.8355 12.1838 13.8114C12.2421 13.7873 12.295 13.7519 12.3396 13.7073L16.9688 9.07809C17.1304 8.92191 17.3469 8.83545 17.5717 8.83734C17.7964 8.83923 18.0114 8.92931 18.1704 9.08819C18.3293 9.24707 18.4196 9.46202 18.4216 9.68676C18.4236 9.9115 18.3373 10.128 18.1812 10.2897L13.5512 14.919C13.3477 15.1228 13.1058 15.2844 12.8397 15.3946C12.5735 15.5047 12.2882 15.5612 12.0001 15.5608Z" fill="#8B6DE8"/>
<path d="M21.5561 23.3575H2.44384C1.84137 23.3567 1.26379 23.1171 0.837776 22.6911C0.411765 22.2651 0.172113 21.6875 0.171387 21.085V15.0932C0.171387 14.8659 0.261693 14.6479 0.422438 14.4871C0.583184 14.3264 0.801201 14.2361 1.02853 14.2361C1.25586 14.2361 1.47388 14.3264 1.63462 14.4871C1.79537 14.6479 1.88567 14.8659 1.88567 15.0932V21.085C1.88585 21.233 1.94472 21.3748 2.04936 21.4795C2.154 21.5841 2.29586 21.643 2.44384 21.6432H21.5561C21.7041 21.643 21.8459 21.5841 21.9506 21.4795C22.0552 21.3748 22.1141 21.233 22.1142 21.085V15.0932C22.1142 14.8659 22.2045 14.6479 22.3653 14.4871C22.526 14.3264 22.7441 14.2361 22.9714 14.2361C23.1987 14.2361 23.4167 14.3264 23.5775 14.4871C23.7382 14.6479 23.8285 14.8659 23.8285 15.0932V21.085C23.8278 21.6875 23.5882 22.2651 23.1621 22.6911C22.7361 23.1171 22.1585 23.3567 21.5561 23.3575Z" fill="#8B6DE8"/>
</g>
<defs>
<clipPath id="clip0_2936_4276">
<rect width="24" height="24" fill="white"/>
</clipPath>
</defs>
</svg>
